<svg id="visual" viewBox="0 0 900 600" width="900" height="600" xmlns="http://www.w3.org/2000/svg" xmlns:xlink="http://www.w3.org/1999/xlink" version="1.1"><g stroke-width="1" stroke-linejoin="bevel"><path d="M464 235L512 263L577 176Z" fill="#246688" stroke="#246688"></path><path d="M527 379L566 300L512 263Z" fill="#0c2435" stroke="#0c2435"></path><path d="M512 263L566 300L577 176Z" fill="#081a28" stroke="#081a28"></path><path d="M577 176L429 126L464 235Z" fill="#297ea6" stroke="#297ea6"></path><path d="M708 210L611 105L577 176Z" fill="#0c2435" stroke="#0c2435"></path><path d="M577 176L529 62L429 126Z" fill="#205a7a" stroke="#205a7a"></path><path d="M611 105L529 62L577 176Z" fill="#0c2435" stroke="#0c2435"></path><path d="M429 126L368 184L464 235Z" fill="#112e42" stroke="#112e42"></path><path d="M376 315L527 379L512 263Z" fill="#0c2435" stroke="#0c2435"></path><path d="M376 315L512 263L464 235Z" fill="#1d4e6b" stroke="#1d4e6b"></path><path d="M368 184L376 315L464 235Z" fill="#277297" stroke="#277297"></path><path d="M688 294L577 176L566 300Z" fill="#205a7a" stroke="#205a7a"></path><path d="M688 294L708 210L577 176Z" fill="#297ea6" stroke="#297ea6"></path><path d="M636 381L688 294L566 300Z" fill="#297ea6" stroke="#297ea6"></path><path d="M580 0L532 0L529 62Z" fill="#112e42" stroke="#112e42"></path><path d="M529 62L380 0L429 126Z" fill="#246688" stroke="#246688"></path><path d="M429 126L300 81L368 184Z" fill="#00101c" stroke="#00101c"></path><path d="M580 0L529 62L611 105Z" fill="#246688" stroke="#246688"></path><path d="M707 0L580 0L611 105Z" fill="#246688" stroke="#246688"></path><path d="M527 379L636 381L566 300Z" fill="#15384f" stroke="#15384f"></path><path d="M708 210L709 79L611 105Z" fill="#0c2435" stroke="#0c2435"></path><path d="M636 381L668 372L688 294Z" fill="#15384f" stroke="#15384f"></path><path d="M376 315L410 408L527 379Z" fill="#277297" stroke="#277297"></path><path d="M527 379L638 528L636 381Z" fill="#15384f" stroke="#15384f"></path><path d="M532 0L380 0L529 62Z" fill="#00101c" stroke="#00101c"></path><path d="M380 0L300 81L429 126Z" fill="#00101c" stroke="#00101c"></path><path d="M368 184L271 233L376 315Z" fill="#19435d" stroke="#19435d"></path><path d="M688 294L763 229L708 210Z" fill="#00101c" stroke="#00101c"></path><path d="M708 210L782 111L709 79Z" fill="#081a28" stroke="#081a28"></path><path d="M827 266L763 229L688 294Z" fill="#112e42" stroke="#112e42"></path><path d="M300 81L271 233L368 184Z" fill="#081a28" stroke="#081a28"></path><path d="M376 315L331 417L410 408Z" fill="#1d4e6b" stroke="#1d4e6b"></path><path d="M271 233L284 308L376 315Z" fill="#246688" stroke="#246688"></path><path d="M833 0L707 0L709 79Z" fill="#297ea6" stroke="#297ea6"></path><path d="M709 79L707 0L611 105Z" fill="#246688" stroke="#246688"></path><path d="M763 229L782 111L708 210Z" fill="#0c2435" stroke="#0c2435"></path><path d="M284 308L331 417L376 315Z" fill="#00101c" stroke="#00101c"></path><path d="M271 233L239 281L284 308Z" fill="#297ea6" stroke="#297ea6"></path><path d="M284 308L205 432L331 417Z" fill="#081a28" stroke="#081a28"></path><path d="M226 197L239 281L271 233Z" fill="#0c2435" stroke="#0c2435"></path><path d="M300 81L226 197L271 233Z" fill="#19435d" stroke="#19435d"></path><path d="M331 417L399 489L410 408Z" fill="#00101c" stroke="#00101c"></path><path d="M410 408L502 529L527 379Z" fill="#0c2435" stroke="#0c2435"></path><path d="M636 381L738 482L668 372Z" fill="#00101c" stroke="#00101c"></path><path d="M829 407L827 266L688 294Z" fill="#277297" stroke="#277297"></path><path d="M763 229L900 195L782 111Z" fill="#0c2435" stroke="#0c2435"></path><path d="M380 0L268 0L300 81Z" fill="#00101c" stroke="#00101c"></path><path d="M300 81L178 127L226 197Z" fill="#19435d" stroke="#19435d"></path><path d="M399 489L502 529L410 408Z" fill="#277297" stroke="#277297"></path><path d="M668 372L829 407L688 294Z" fill="#205a7a" stroke="#205a7a"></path><path d="M268 0L178 127L300 81Z" fill="#1d4e6b" stroke="#1d4e6b"></path><path d="M226 197L108 190L239 281Z" fill="#297ea6" stroke="#297ea6"></path><path d="M502 529L638 528L527 379Z" fill="#19435d" stroke="#19435d"></path><path d="M638 528L738 482L636 381Z" fill="#15384f" stroke="#15384f"></path><path d="M331 417L331 518L399 489Z" fill="#1d4e6b" stroke="#1d4e6b"></path><path d="M403 600L523 600L502 529Z" fill="#00101c" stroke="#00101c"></path><path d="M226 517L331 518L331 417Z" fill="#277297" stroke="#277297"></path><path d="M205 432L284 308L239 281Z" fill="#205a7a" stroke="#205a7a"></path><path d="M900 69L833 0L782 111Z" fill="#0c2435" stroke="#0c2435"></path><path d="M782 111L833 0L709 79Z" fill="#246688" stroke="#246688"></path><path d="M738 482L829 407L668 372Z" fill="#19435d" stroke="#19435d"></path><path d="M827 266L900 195L763 229Z" fill="#19435d" stroke="#19435d"></path><path d="M900 279L900 195L827 266Z" fill="#15384f" stroke="#15384f"></path><path d="M127 401L205 432L239 281Z" fill="#19435d" stroke="#19435d"></path><path d="M829 407L900 279L827 266Z" fill="#0c2435" stroke="#0c2435"></path><path d="M165 0L127 121L178 127Z" fill="#246688" stroke="#246688"></path><path d="M178 127L108 190L226 197Z" fill="#277297" stroke="#277297"></path><path d="M502 529L591 600L638 528Z" fill="#081a28" stroke="#081a28"></path><path d="M777 600L798 492L738 482Z" fill="#00101c" stroke="#00101c"></path><path d="M403 600L502 529L399 489Z" fill="#246688" stroke="#246688"></path><path d="M900 195L900 69L782 111Z" fill="#297ea6" stroke="#297ea6"></path><path d="M268 0L165 0L178 127Z" fill="#00101c" stroke="#00101c"></path><path d="M738 482L798 492L829 407Z" fill="#19435d" stroke="#19435d"></path><path d="M829 407L900 426L900 279Z" fill="#1d4e6b" stroke="#1d4e6b"></path><path d="M694 600L738 482L638 528Z" fill="#112e42" stroke="#112e42"></path><path d="M523 600L591 600L502 529Z" fill="#205a7a" stroke="#205a7a"></path><path d="M127 121L108 190L178 127Z" fill="#205a7a" stroke="#205a7a"></path><path d="M263 600L403 600L331 518Z" fill="#0c2435" stroke="#0c2435"></path><path d="M331 518L403 600L399 489Z" fill="#205a7a" stroke="#205a7a"></path><path d="M205 432L226 517L331 417Z" fill="#081a28" stroke="#081a28"></path><path d="M91 502L226 517L205 432Z" fill="#0c2435" stroke="#0c2435"></path><path d="M900 69L900 0L833 0Z" fill="#1d4e6b" stroke="#1d4e6b"></path><path d="M591 600L694 600L638 528Z" fill="#205a7a" stroke="#205a7a"></path><path d="M73 319L127 401L239 281Z" fill="#1d4e6b" stroke="#1d4e6b"></path><path d="M900 503L900 426L798 492Z" fill="#19435d" stroke="#19435d"></path><path d="M798 492L900 426L829 407Z" fill="#00101c" stroke="#00101c"></path><path d="M108 190L73 319L239 281Z" fill="#112e42" stroke="#112e42"></path><path d="M0 86L0 217L108 190Z" fill="#205a7a" stroke="#205a7a"></path><path d="M108 190L0 217L73 319Z" fill="#112e42" stroke="#112e42"></path><path d="M165 0L97 0L127 121Z" fill="#00101c" stroke="#00101c"></path><path d="M167 600L263 600L226 517Z" fill="#205a7a" stroke="#205a7a"></path><path d="M226 517L263 600L331 518Z" fill="#15384f" stroke="#15384f"></path><path d="M694 600L777 600L738 482Z" fill="#00101c" stroke="#00101c"></path><path d="M900 600L900 503L798 492Z" fill="#15384f" stroke="#15384f"></path><path d="M0 428L91 502L127 401Z" fill="#00101c" stroke="#00101c"></path><path d="M127 401L91 502L205 432Z" fill="#277297" stroke="#277297"></path><path d="M0 86L108 190L127 121Z" fill="#277297" stroke="#277297"></path><path d="M0 428L127 401L73 319Z" fill="#19435d" stroke="#19435d"></path><path d="M0 217L0 285L73 319Z" fill="#1d4e6b" stroke="#1d4e6b"></path><path d="M97 0L0 86L127 121Z" fill="#277297" stroke="#277297"></path><path d="M91 502L167 600L226 517Z" fill="#1d4e6b" stroke="#1d4e6b"></path><path d="M97 0L0 0L0 86Z" fill="#297ea6" stroke="#297ea6"></path><path d="M777 600L900 600L798 492Z" fill="#19435d" stroke="#19435d"></path><path d="M0 285L0 428L73 319Z" fill="#246688" stroke="#246688"></path><path d="M91 502L118 600L167 600Z" fill="#15384f" stroke="#15384f"></path><path d="M0 537L118 600L91 502Z" fill="#19435d" stroke="#19435d"></path><path d="M0 428L0 537L91 502Z" fill="#081a28" stroke="#081a28"></path><path d="M0 537L0 600L118 600Z" fill="#0c2435" stroke="#0c2435"></path></g></svg>